<svg xmlns="http://www.w3.org/2000/svg" xmlns:xlink="http://www.w3.org/1999/xlink" width="100" zoomAndPan="magnify" viewBox="0 0 75 74.999997" height="100" preserveAspectRatio="xMidYMid meet" version="1.0"><defs><clipPath id="09e53185cd"><path d="M 11.144531 8.695312 L 63.644531 8.695312 L 63.644531 66.445312 L 11.144531 66.445312 Z M 11.144531 8.695312 " clip-rule="nonzero"/></clipPath></defs><g clip-path="url(#09e53185cd)"><path fill="#ffffff" d="M 63.160156 20.089844 L 54.617188 15.128906 C 54.777344 14.644531 54.886719 14.136719 54.886719 13.597656 C 54.886719 10.902344 52.707031 8.707031 50.027344 8.707031 C 47.34375 8.707031 45.164062 10.902344 45.164062 13.597656 C 45.164062 16.296875 47.34375 18.492188 50.027344 18.492188 C 51.472656 18.492188 52.757812 17.839844 53.648438 16.828125 L 61.699219 21.503906 L 61.699219 35.050781 L 50.035156 41.824219 L 38.367188 35.050781 L 38.367188 20.9375 C 38.367188 20.589844 38.183594 20.265625 37.882812 20.089844 L 25.242188 12.753906 C 24.941406 12.578125 24.574219 12.578125 24.273438 12.753906 L 11.632812 20.089844 C 11.332031 20.265625 11.148438 20.589844 11.148438 20.9375 L 11.148438 35.617188 C 11.148438 35.964844 11.332031 36.289062 11.632812 36.464844 L 23.785156 43.519531 L 23.785156 58.121094 C 23.785156 58.46875 23.96875 58.792969 24.269531 58.96875 L 36.910156 66.304688 C 37.058594 66.394531 37.226562 66.4375 37.394531 66.4375 C 37.5625 66.4375 37.730469 66.394531 37.878906 66.304688 L 46.703125 61.179688 C 47.574219 62.003906 48.738281 62.519531 50.027344 62.519531 C 52.707031 62.519531 54.886719 60.324219 54.886719 57.628906 C 54.886719 54.929688 52.707031 52.734375 50.027344 52.734375 C 47.34375 52.734375 45.164062 54.929688 45.164062 57.628906 C 45.164062 58.320312 45.3125 58.980469 45.574219 59.578125 L 37.394531 64.328125 L 25.726562 57.554688 L 25.726562 43.523438 L 37.398438 36.746094 L 49.546875 43.800781 C 49.699219 43.886719 49.867188 43.929688 50.035156 43.929688 C 50.203125 43.929688 50.367188 43.886719 50.519531 43.800781 L 63.160156 36.460938 C 63.460938 36.285156 63.644531 35.964844 63.644531 35.613281 L 63.644531 20.9375 C 63.644531 20.585938 63.460938 20.265625 63.160156 20.089844 Z M 50.027344 16.535156 C 48.417969 16.535156 47.109375 15.21875 47.109375 13.597656 C 47.109375 11.980469 48.417969 10.664062 50.027344 10.664062 C 51.632812 10.664062 52.941406 11.980469 52.941406 13.597656 C 52.941406 15.21875 51.632812 16.535156 50.027344 16.535156 Z M 50.027344 54.691406 C 51.632812 54.691406 52.941406 56.007812 52.941406 57.628906 C 52.941406 59.246094 51.632812 60.5625 50.027344 60.5625 C 48.417969 60.5625 47.109375 59.246094 47.109375 57.628906 C 47.109375 56.007812 48.417969 54.691406 50.027344 54.691406 Z M 36.425781 35.050781 L 24.757812 41.824219 L 13.089844 35.050781 L 13.089844 21.503906 L 24.757812 14.730469 L 36.425781 21.503906 Z M 36.425781 35.050781 " fill-opacity="1" fill-rule="nonzero"/></g></svg>